<mxfile host="app.diagrams.net" modified="2023-01-06T02:30:10.503Z" agent="5.0 (X11)" etag="tKK0wHoRUTxVlPx_jXh3" version="20.5.3" type="github">
  <diagram id="D-xlwJKUBUGdmB2acXy5" name="Page-1">
    <mxGraphModel dx="1422" dy="754" grid="1" gridSize="10" guides="1" tooltips="1" connect="1" arrows="1" fold="1" page="1" pageScale="1" pageWidth="850" pageHeight="1100" math="0" shadow="0">
      <root>
        <mxCell id="0" />
        <mxCell id="1" parent="0" />
        <mxCell id="X7l30n8DzPeqaY1r7qdO-1" value="" style="rounded=1;whiteSpace=wrap;html=1;" vertex="1" parent="1">
          <mxGeometry x="50" y="50" width="230" height="430" as="geometry" />
        </mxCell>
      </root>
    </mxGraphModel>
  </diagram>
</mxfile>
